<?xml version="1.0"?>
<svg xmlns="http://www.w3.org/2000/svg" viewBox="0 0 64 64" width="512" height="512"><g id="outline"><path d="M61,39H58V37h2V35H50V27h1a1,1,0,0,0,1-1V22a1,1,0,0,0-1-1H45V18a1,1,0,0,0-1-1H39V15h3V13H34v2h3v2H32a1,1,0,0,0-1,1v3h-.68L9.581,6.187a.988.988,0,0,0-.762-.17,1,1,0,0,0-.651.428l-2,3a1,1,0,0,0,.255,1.372L9,12.637v9.2c-.475,1.4-4.109,11.976-6.8,15.563a1,1,0,0,0,.245,1.432A14.774,14.774,0,0,0,10,41a14.774,14.774,0,0,0,7.555-2.168A1,1,0,0,0,17.8,37.4c-2.69-3.586-6.325-14.163-6.8-15.563V14.048l10.034,7.083A4,4,0,0,0,18,25v1a1,1,0,0,0,1,1h1V43H3a1,1,0,0,0-1,1v7a1,1,0,0,0,.758.97l2.79.7-.377.754A3.163,3.163,0,0,0,8,58H50a8.6,8.6,0,0,0,7.914-5.594l4-9A1,1,0,0,0,62,43V40A1,1,0,0,0,61,39ZM9,38.951a13.277,13.277,0,0,1-4.558-1.3c.268-.427.54-.9.813-1.41A12.224,12.224,0,0,0,9,37.277Zm0-3.686a10.157,10.157,0,0,1-2.845-.8c.277-.579.552-1.179.822-1.79A8.5,8.5,0,0,0,9,33.232Zm0-4.052a6.591,6.591,0,0,1-1.236-.382c.441-1.063.858-2.117,1.236-3.107ZM54,37h2v2H54Zm-1,4h2v1a1,1,0,0,1-1,1H53Zm-1-4v2H50V37ZM35,39a1,1,0,0,0-.707.293L30.586,43H22V37h8a1,1,0,0,0,1-1V30a1,1,0,0,0-1-1H22V27H48v2H34a1,1,0,0,0-1,1v6a1,1,0,0,0,1,1H48v2Zm6,2v2H40a1,1,0,0,1-1-1V41ZM22,35V31h7v4Zm26-4v4H35V31ZM43,41h8v2H43ZM33,19H43v2H33ZM15.56,37.658A13.158,13.158,0,0,1,11,38.952V37.306a10.144,10.144,0,0,0,3.758-1.037C15.027,36.769,15.3,37.236,15.56,37.658Zm-1.707-3.18A8.23,8.23,0,0,1,11,35.294V33.267a7.158,7.158,0,0,0,2.041-.556C13.308,33.315,13.579,33.906,13.853,34.478Zm-1.6-3.605A5.235,5.235,0,0,1,11,31.257V27.724C11.383,28.727,11.806,29.8,12.254,30.873ZM8.372,9.744l.887-1.33L26.88,21H24.317ZM22,23H50v2H20A2,2,0,0,1,22,23ZM50,56H8a1.164,1.164,0,0,1-1.04-1.684L7.618,53H55.309A6.352,6.352,0,0,1,50,56Zm6.351-5H7.121L4,50.219V49H57.239ZM60,42.788,58.128,47H4V45H31a1,1,0,0,0,.707-.293L35.414,41H37v1a3,3,0,0,0,3,3H54a3,3,0,0,0,3-3V41h3Z"/><rect x="24" y="39" width="2" height="2"/><rect x="28" y="39" width="2" height="2"/></g></svg>
